# xmcd
#
# Track frame offsets:
#	182
#	13417
#	31895
#	41242
#	61907
#	78537
#	96325
#	112577
#	129537
#	150262
#	166092
#	184157
#	202420
#	220290
#	242012
#	259800
#	279632
#	301167
#	322350
#	339292
#
# Disc length: 4689
#
# Revision: 1
# Processed by: cddbd v1.5.1PL0 Copyright (c) Steve Scherf et al.
# Submitted via: audiograbber 1.81.02
# Normalized: r0:DSETVAR1
#
DISCID=1f124f14
DTITLE=Various Artist - The Greatest Soul Album Of All Time - CD 1
DYEAR=1995
DGENRE=Soul
TTITLE0=Marvin Gaye with Diana Ross - You Are Everthing
TTITLE1=Freddie Jackson - Rock Me Tonight
TTITLE2=Bill Withers - Ain't No Sunshine
TTITLE3=Champaign - How 'Bout Us
TTITLE4=Billy Paul - Me and Mrs Jones
TTITLE5=Kool and The Gang - Cherish
TTITLE6=Eugene Wilde - Gotta Get You Home
TTITLE7=Mtume - Juicy Fruit
TTITLE8=R.Kelly - Your Body's Callin'
TTITLE9=Imagination - Body Talk
TTITLE10=Atlantic Starr - Always
TTITLE11=Gregory Abbott - Shake You Down
TTITLE12=The Crusaders - Streetlife
TTITLE13=Bobby Brown - Rock Wit'cha
TTITLE14=Rose Royce - I Want To Get Next To You
TTITLE15=Millie Jackson and Isaac Hayes - Do You Wanna Make Love
TTITLE16=Al Green - Let's Stay Together
TTITLE17=Gladys Knight and The Pips - Midnight Train To Georgia
TTITLE18=William De Vaughn - Be Thankful For What You've Got
TTITLE19=James Brown - It's A Man's Man's Man's World
EXTD=
EXTT0=Marvin Gaye with Diana Ross
EXTT1=Freddie Jackson
EXTT2=Bill Withers
EXTT3=Champaign
EXTT4=Billy Paul
EXTT5=Kool and The Gang
EXTT6=Eugene Wild
EXTT7=Mtune
EXTT8=R. kelly
EXTT9=Imagination
EXTT10=Atlantic Starr
EXTT11=Gregory abbot
EXTT12=The Crusaders
EXTT13=Bobby Brown
EXTT14=Rose Royce
EXTT15=Millie Jackson and Isaac Hayes
EXTT16=Al Green
EXTT17=Gladys Knight and The Pips
EXTT18=William de Vaughn
EXTT19=James Brown
PLAYORDER=
